<svg width="53" height="53" viewBox="0 0 53 53" fill="none" xmlns="http://www.w3.org/2000/svg">
<path d="M1.69876 44.1525L2.52688 46.6369C2.58185 46.8018 2.6873 46.9452 2.8283 47.0468C2.9693 47.1484 3.1387 47.2031 3.3125 47.2031H5.79688C5.97068 47.2031 6.14008 47.1484 6.28108 47.0468C6.42208 46.9452 6.52753 46.8018 6.58249 46.6369L7.22188 44.7187H8.51249L9.15188 46.6369C9.20685 46.8018 9.3123 46.9452 9.4533 47.0468C9.5943 47.1484 9.7637 47.2031 9.9375 47.2031H12.4219C12.5957 47.2031 12.7651 47.1484 12.9061 47.0468C13.0471 46.9452 13.1525 46.8018 13.2075 46.6369L14.0356 44.1525L14.0352 44.1524C14.0635 44.068 14.078 43.9796 14.0781 43.8906V40.5781C14.0781 40.3585 13.9909 40.1479 13.8356 39.9926C13.6803 39.8372 13.4696 39.75 13.25 39.75H10.7656V37.2656H14.0781C14.2978 37.2656 14.5084 37.1784 14.6637 37.0231C14.819 36.8678 14.9062 36.6571 14.9062 36.4375V32.2969C14.9062 32.0772 14.819 31.8666 14.6637 31.7113C14.5084 31.556 14.2978 31.4688 14.0781 31.4687H11.5938V30.6406C11.5937 30.421 11.5065 30.2103 11.3512 30.055L9.97243 28.6763L10.6869 21.5312H13.5663L18.3056 31.0098C18.9196 32.2433 19.905 33.2533 21.1229 33.8975L45.9865 47.1063C46.178 47.2082 46.4019 47.2308 46.61 47.1692C46.8181 47.1077 46.9936 46.9669 47.0989 46.7771L51.2395 39.324C51.2938 39.2263 51.3278 39.1186 51.3393 39.0074C51.3509 38.8963 51.3398 38.7839 51.3067 38.6771C51.2737 38.5703 51.2194 38.4713 51.1471 38.3861C51.0748 38.3009 50.9859 38.2312 50.886 38.1812L49.2297 37.3531C49.1051 37.2907 48.9668 37.2609 48.8276 37.2662C48.6884 37.2715 48.5528 37.3119 48.4333 37.3836L44.7776 39.577L27.1983 25.993L23.4141 15.3973C23.8084 14.7505 24.0166 14.0075 24.0156 13.25V9.10938C24.0156 8.49421 23.8443 7.8912 23.5209 7.36791C23.1975 6.84462 22.7348 6.42172 22.1845 6.14661C21.6343 5.87149 21.0184 5.75502 20.4057 5.81025C19.793 5.86549 19.2078 6.09023 18.7157 6.45932L16.0656 8.44684C15.9628 8.52399 15.8793 8.62402 15.8218 8.73901C15.7643 8.85401 15.7344 8.98081 15.7344 9.10938V13.25C15.734 13.8201 15.8521 14.3841 16.0812 14.9062H10.7656C9.00917 14.9082 7.32523 15.6069 6.08323 16.8489C4.84123 18.0909 4.14261 19.7748 4.14062 21.5312V30.6406C4.14063 30.8603 4.22788 31.0709 4.38319 31.2262L4.6257 31.4687H2.48438C2.26474 31.4688 2.05411 31.556 1.8988 31.7113C1.7435 31.8666 1.65625 32.0772 1.65625 32.2969V36.4375C1.65625 36.6571 1.7435 36.8678 1.8988 37.0231C2.05411 37.1784 2.26474 37.2656 2.48438 37.2656H5.79688V39.75H2.48438C2.26474 39.75 2.05411 39.8372 1.8988 39.9926C1.7435 40.1479 1.65625 40.3585 1.65625 40.5781V43.8906C1.65635 43.9796 1.67084 44.068 1.69916 44.1524L1.69876 44.1525ZM5.19999 45.5469H3.90938L3.63334 44.7187H5.47604L5.19999 45.5469ZM10.5344 45.5469L10.2583 44.7187H12.101L11.825 45.5469H10.5344ZM13.25 19.875V16.5625H17.3906V16.5602C18.0682 17.0703 18.8864 17.3594 19.734 17.3882C20.5816 17.417 21.4176 17.1841 22.1282 16.7212L24.8378 24.3082L18.2668 27.2287L15.4181 21.5312H19.0469V19.875H13.25ZM22.3594 13.25C22.3594 13.9089 22.0976 14.5408 21.6317 15.0067C21.1658 15.4726 20.5339 15.7344 19.875 15.7344C19.2161 15.7344 18.5842 15.4726 18.1183 15.0067C17.6524 14.5408 17.3906 13.9089 17.3906 13.25V12.4219H18.2188C18.4384 12.4219 18.649 12.3346 18.8043 12.1794L20.2181 10.7656H22.3594V13.25ZM43.3382 43.824L28.5863 35.987L31.4641 31.3825L43.8205 40.9305L43.3382 43.824ZM48.8956 39.0377L49.3717 39.2758L46.0458 45.2624L44.8807 44.6435L45.4727 41.0915L48.8956 39.0377ZM30.147 30.3647L27.1199 35.208L21.9 32.435C20.9865 31.9517 20.2475 31.1942 19.787 30.269L19.0082 28.7116L25.3965 25.8724L25.7201 26.7785C25.7734 26.9277 25.8683 27.0584 25.9936 27.1553L30.147 30.3647ZM19.7093 7.7844C19.9554 7.59984 20.248 7.48745 20.5543 7.45982C20.8607 7.43219 21.1687 7.49042 21.4438 7.62797C21.7189 7.76553 21.9503 7.97698 22.112 8.23862C22.2737 8.50027 22.3594 8.80179 22.3594 9.10938H19.875C19.6554 9.10937 19.4447 9.19661 19.2894 9.35189L17.8757 10.7656H17.3906V9.52344L19.7093 7.7844ZM5.79688 30.2976V21.5312C5.79835 20.2139 6.32232 18.9509 7.25382 18.0194C8.18532 17.0879 9.44828 16.564 10.7656 16.5625H11.5938V19.875H9.9375C9.73213 19.875 9.53409 19.9513 9.38182 20.0891C9.22955 20.2269 9.13391 20.4164 9.11347 20.6207L8.28534 28.902C8.27315 29.024 8.28821 29.1473 8.32945 29.2628C8.37069 29.3783 8.43708 29.4832 8.52381 29.57L9.9375 30.9836V31.4687H6.96805L5.79688 30.2976ZM3.3125 33.125H13.25V35.6094H3.3125V33.125ZM7.45312 37.2656H9.10938V39.75H7.45312V37.2656ZM3.3125 41.4062H12.4219V43.0625H3.3125V41.4062Z" fill="#FF2625" fill-opacity="0.2"/>
</svg>
