<svg width="52" height="52" viewBox="0 0 52 52" fill="none" xmlns="http://www.w3.org/2000/svg">
<path d="M49.9259 45.5858L45.5 43.3728V30.4688C45.4979 28.6377 44.7696 26.8823 43.4749 25.5876C42.1802 24.2929 40.4248 23.5646 38.5938 23.5625H24.8098L24.7781 23.5149C24.3648 22.8941 23.8264 22.3665 23.1973 21.966C22.5682 21.5654 21.8624 21.3007 21.125 21.1889V4.0625C21.1243 3.41626 20.8672 2.7967 20.4103 2.33973C19.9533 1.88277 19.3337 1.62573 18.6875 1.625H17.0625C16.892 1.625 16.7258 1.67866 16.5874 1.77837C16.4491 1.87808 16.3456 2.01879 16.2917 2.18057L15.7754 3.7293L14.9884 3.33579C14.7957 3.23944 14.5725 3.22359 14.3681 3.29173C14.1637 3.35987 13.9947 3.50642 13.8983 3.69914L13.0858 5.32414C13.0217 5.45225 12.9927 5.59502 13.0016 5.73798C13.0105 5.88094 13.057 6.01901 13.1365 6.13818L14.5938 8.32415L12.5487 24.6845C11.7952 23.964 10.7926 23.562 9.75 23.5625H6.5C5.65487 23.562 4.83064 23.8252 4.14225 24.3155C3.45386 24.8058 2.93563 25.4987 2.65981 26.2975C2.38399 27.0964 2.36434 27.9614 2.60359 28.772C2.84284 29.5825 3.32908 30.2982 3.99449 30.8193L3.54398 31.7203C3.34407 32.1201 3.24335 32.5621 3.25034 33.009C3.25733 33.4559 3.37183 33.8946 3.58414 34.2879C3.79646 34.6812 4.10036 35.0176 4.47014 35.2687C4.83993 35.5197 5.26473 35.6781 5.70863 35.7303C4.7434 37.1335 4.17988 38.7737 4.07893 40.4738C3.97799 42.1739 4.34344 43.8692 5.13584 45.3768C5.92823 46.8843 7.11744 48.1467 8.57502 49.0276C10.0326 49.9085 11.7032 50.3744 13.4063 50.375H18.2813C20.2785 50.3756 22.2234 49.736 23.8305 48.55C25.4376 47.3641 26.6222 45.6942 27.2105 43.7856C27.7989 41.8769 27.76 39.8299 27.0995 37.945C26.439 36.0601 25.1918 34.4365 23.5408 33.3125H37.5058L39.8125 46.3834V48.75C39.8125 48.9655 39.8981 49.1721 40.0505 49.3245C40.2029 49.4769 40.4095 49.5625 40.625 49.5625H49.5625C49.778 49.5625 49.9846 49.4769 50.137 49.3245C50.2894 49.1721 50.375 48.9655 50.375 48.75V46.3125C50.375 46.1616 50.333 46.0137 50.2537 45.8854C50.1744 45.757 50.0609 45.6533 49.9259 45.5858ZM34.9375 25.1875V31.6875H27.625V25.1875H34.9375ZM14.9884 5.15256L15.8866 5.60171C15.9907 5.65377 16.1048 5.68286 16.2212 5.68699C16.3375 5.69113 16.4534 5.67021 16.5609 5.62567C16.6685 5.58112 16.7652 5.51398 16.8446 5.4288C16.9239 5.34361 16.984 5.24237 17.0208 5.13193L17.6481 3.25H18.6875C18.9029 3.25025 19.1094 3.33593 19.2618 3.48825C19.4141 3.64057 19.4998 3.84709 19.5 4.0625V17.875H15.0376L16.2438 8.22577C16.268 8.03228 16.2217 7.83654 16.1135 7.67432L14.7501 5.62913L14.9884 5.15256ZM7.3125 25.1875H9.75C10.3965 25.1875 11.0165 25.4443 11.4736 25.9014C11.9307 26.3585 12.1875 26.9785 12.1875 27.625C12.1875 28.2715 11.9307 28.8915 11.4736 29.3486C11.0165 29.8057 10.3965 30.0625 9.75 30.0625H8.9375V29.25C8.9375 29.0345 8.85192 28.8279 8.69956 28.6755L7.3125 27.2884V25.1875ZM5.6875 25.3273V27.625C5.6875 27.8405 5.77309 28.0471 5.92544 28.1995L7.3125 29.5866V30.0625H6.5C5.92502 30.0626 5.36854 29.8593 4.92892 29.4887C4.4893 29.1182 4.19484 28.6041 4.09761 28.0374C4.00037 27.4707 4.10661 26.8879 4.39755 26.3919C4.68849 25.896 5.1454 25.5189 5.6875 25.3273ZM4.875 32.9655C4.87524 32.7855 4.91713 32.6081 4.99739 32.447L5.44676 31.5482C5.79021 31.6407 6.14433 31.6875 6.5 31.6875H10.5625C11.2087 31.6882 11.8283 31.9453 12.2853 32.4022C12.7422 32.8592 12.9993 33.4788 13 34.125V35.6592C11.4997 34.6544 9.73358 34.1202 7.92783 34.125H6.03444C5.72704 34.1246 5.43233 34.0024 5.21497 33.785C4.99761 33.5676 4.87534 33.2729 4.875 32.9655ZM26 41.0312C25.9977 43.0777 25.1837 45.0396 23.7367 46.4867C22.2896 47.9337 20.3277 48.7477 18.2813 48.75H13.4063C11.9005 48.7502 10.4275 48.31 9.16885 47.4834C7.91018 46.6569 6.92081 45.4802 6.32262 44.0984C5.72442 42.7165 5.54355 41.1898 5.80228 39.7064C6.061 38.2231 6.74803 36.8478 7.77871 35.75H7.92783C8.9144 35.7473 9.89172 35.9403 10.8032 36.3179C11.7147 36.6954 12.5422 37.25 13.2379 37.9495C13.3516 38.0631 13.4963 38.1405 13.654 38.1719C13.8116 38.2033 13.9749 38.1872 14.1234 38.1257C14.2719 38.0642 14.3988 37.96 14.4881 37.8264C14.5773 37.6928 14.625 37.5357 14.625 37.375V34.125C14.6251 33.6963 14.557 33.2703 14.4233 32.863C15.3392 33.1612 16.2965 33.3129 17.2597 33.3125H18.2813C20.3277 33.3148 22.2896 34.1288 23.7367 35.5758C25.1837 37.0229 25.9977 38.9848 26 41.0312ZM17.2597 31.6875C15.6727 31.6916 14.1259 31.189 12.8444 30.2529C13.4552 29.5368 13.797 28.6299 13.8109 27.6887L14.8345 19.5H19.5V26H21.125V22.8405C22.0668 23.0487 22.8915 23.6135 23.426 24.4164L23.699 24.8257C23.7732 24.937 23.8737 25.0283 23.9916 25.0914C24.1096 25.1545 24.2412 25.1875 24.375 25.1875H26V31.6875H17.2597ZM38.1875 31.6875H36.5625V25.1875H38.5938C39.9939 25.1891 41.3363 25.746 42.3264 26.7361C43.3165 27.7262 43.8734 29.0686 43.875 30.4688V43.415L41.2198 45.0081L38.9876 32.3588C38.9544 32.1707 38.856 32.0003 38.7097 31.8775C38.5634 31.7548 38.3785 31.6875 38.1875 31.6875ZM48.75 47.9375H41.4375V46.7725L44.7231 44.8012L48.75 46.8147V47.9375Z" fill="#FF2625" fill-opacity="0.2"/>
</svg>
