<svg width="50" height="50" viewBox="0 0 50 50" fill="none" xmlns="http://www.w3.org/2000/svg">
<g clip-path="url(#clip0_304_577)">
<path fill-rule="evenodd" clip-rule="evenodd" d="M45.0068 26.4026C44.5765 23.8963 43.5973 21.5861 42.512 19.4354C42.5089 19.4297 42.5063 19.4236 42.5032 19.4179C42.0561 18.5325 41.5911 17.6742 41.1395 16.8399C39.6662 14.1208 38.275 11.5524 38.1667 9.21551C37.9191 3.89975 40.2178 1.80129 40.3086 1.7208C40.6287 1.4595 40.742 1.03149 40.6035 0.642392C40.465 0.253676 40.0889 0 39.6762 0H10.4061C9.99297 0 9.61379 0.250625 9.47532 0.639341C9.33647 1.02844 9.44633 1.45301 9.76638 1.71432C9.86442 1.80091 12.1631 3.89975 11.916 9.21513C11.8072 11.552 10.416 14.1204 8.94317 16.8399C8.49113 17.6738 8.02612 18.5325 7.57904 19.4179C7.57599 19.4236 7.57332 19.4293 7.57027 19.435C6.41633 21.7219 5.38255 24.1889 5.0007 26.8805C4.99612 26.9076 4.99231 26.9351 4.99002 26.9626C4.85421 27.9551 4.80615 28.9782 4.87558 30.0345C4.99383 31.8389 5.30168 33.8797 5.79034 36.101C5.9063 36.6278 6.42701 36.9605 6.95382 36.8449C7.48062 36.7289 7.81365 36.2082 7.69768 35.6814C7.23038 33.5559 6.93665 31.613 6.8245 29.9067C6.80275 29.5771 6.79551 29.251 6.79856 28.9279L20.6832 39.5968C21.6159 40.3136 22.7996 40.7587 24.0646 40.8774V48.0471H11.6115C11.2533 47.1647 10.5465 45.3638 9.78698 43.0998C9.61532 42.5886 9.06143 42.3132 8.55064 42.4849C8.03909 42.6562 7.76367 43.2097 7.93533 43.7212C9.04579 47.0308 10.0201 49.3128 10.0609 49.4081C10.215 49.7671 10.5678 50.0002 10.9585 50.0002H39.1238C39.5144 50.0002 39.8677 49.7671 40.0214 49.4081C40.2102 48.9679 44.6497 38.526 45.2067 30.0349C45.2879 28.7978 45.2094 27.6065 45.0156 26.456C45.0133 26.438 45.0102 26.4205 45.0068 26.4026ZM13.8668 9.3063C14.0316 5.76627 13.171 3.38515 12.3566 1.9535H37.7257C36.9109 3.38515 36.0507 5.76627 36.2155 9.3063C36.3448 12.0895 37.8398 14.849 39.4217 17.7703C39.7513 18.3784 40.0824 18.9903 40.4051 19.6071C36.8552 22.2102 31.1908 23.7479 25.0411 23.7479C18.8915 23.7479 13.2271 22.2102 9.67712 19.6071C9.99984 18.9903 10.331 18.3784 10.6602 17.7703C12.2429 14.849 13.7375 12.0895 13.8668 9.3063ZM7.01447 26.6307C7.33986 24.7977 8.00018 23.0594 8.79402 21.3752C12.6877 24.0993 18.6443 25.701 25.0411 25.701C31.4384 25.701 37.3946 24.0989 41.2882 21.3752C42.0157 22.9186 42.6306 24.5078 42.9789 26.1737L27.4097 38.1369C25.9403 39.266 23.405 39.2252 21.8734 38.0484L7.01447 26.6307ZM43.2578 29.9071C42.7962 36.9456 39.4152 45.7136 38.4707 48.0471H26.0177V40.7965C26.9874 40.6199 27.8758 40.2415 28.5995 39.6857L43.2688 28.414C43.2925 28.9042 43.291 29.4013 43.2578 29.9071Z" fill="#FF2625" fill-opacity="0.2"/>
<path fill-rule="evenodd" clip-rule="evenodd" d="M25.0415 19.2011C25.5809 19.2011 26.0181 18.7639 26.0181 18.2245V15.2513C26.0181 14.7119 25.5809 14.2748 25.0415 14.2748C24.5021 14.2748 24.065 14.7119 24.065 15.2513V18.2245C24.065 18.7639 24.5021 19.2011 25.0415 19.2011Z" fill="#FF2625" fill-opacity="0.2"/>
<path fill-rule="evenodd" clip-rule="evenodd" d="M5.95152 10.7763C5.57005 11.1578 5.57005 11.7761 5.95152 12.1572C6.14226 12.3479 6.39212 12.4433 6.64198 12.4433C6.89185 12.4433 7.14209 12.3479 7.33244 12.1572C7.33244 12.1572 10.1584 9.33129 10.1622 9.32747C10.3823 9.10736 10.4933 8.78044 10.4384 8.4726C10.4025 8.27118 10.3087 8.09037 10.1637 7.94503L7.33244 5.11376C6.95135 4.73267 6.33299 4.73267 5.95152 5.11376C5.57005 5.49523 5.57005 6.11359 5.95152 6.49506L7.11577 7.65892H1.46582C0.926422 7.65892 0.489258 8.09609 0.489258 8.63549C0.489258 9.17488 0.926422 9.61205 1.46582 9.61205H7.11577L5.95152 10.7763Z" fill="#FF2625" fill-opacity="0.2"/>
<path fill-rule="evenodd" clip-rule="evenodd" d="M48.6157 7.65874H42.9662L44.13 6.49488C44.5115 6.11341 44.5115 5.49504 44.13 5.11357C43.7486 4.73249 43.1306 4.73249 42.7491 5.11357L39.9179 7.94484C39.6596 8.20272 39.5494 8.62996 39.6878 8.97405C39.7409 9.10566 39.8183 9.2262 39.9179 9.32576L42.7491 12.157C42.9399 12.3478 43.1897 12.4431 43.4396 12.4431C43.6894 12.4431 43.9393 12.3478 44.13 12.157C44.5115 11.7759 44.5115 11.1576 44.13 10.7761L42.9658 9.61187H48.6157C49.1551 9.61187 49.5923 9.1747 49.5923 8.6353C49.5923 8.09591 49.1551 7.65874 48.6157 7.65874Z" fill="#FF2625" fill-opacity="0.2"/>
<path fill-rule="evenodd" clip-rule="evenodd" d="M8.67819 39.679C8.67819 39.1411 8.2395 38.7024 7.70163 38.7024C7.16376 38.7024 6.72507 39.1411 6.72507 39.679C6.72507 40.2168 7.16376 40.6555 7.70163 40.6555C8.2395 40.6555 8.67819 40.2168 8.67819 39.679Z" fill="#FF2625" fill-opacity="0.2"/>
</g>
<defs>
<clipPath id="clip0_304_577">
<rect width="50" height="50" fill="white"/>
</clipPath>
</defs>
</svg>
